<svg width="20" height="14" viewBox="0 0 20 14" fill="none" xmlns="http://www.w3.org/2000/svg">
<path fill-rule="evenodd" clip-rule="evenodd" d="M2.03582 1.14907L3 0L5.39239 2.00745C6.8324 1.3432 8.40395 0.995972 9.99995 0.995972C12.0282 0.995972 14.017 1.55674 15.7464 2.61631C17.4759 3.67588 18.8788 5.19299 19.7999 6.99997C18.9624 8.64291 17.7266 10.0462 16.2093 11.0839L18.3209 12.8558L17.3567 14.0048L14.8316 11.886C13.3313 12.6196 11.6792 13.004 9.99995 13.004C7.97171 13.004 5.98295 12.4432 4.25347 11.3836C2.524 10.3241 1.12114 8.80696 0.199951 6.99997C1.07319 5.28706 2.37924 3.83463 3.98604 2.7855L2.03582 1.14907ZM6.56531 4.94976C6.19839 5.56449 5.99995 6.272 5.99995 6.99997C5.99995 8.06084 6.42138 9.07825 7.17152 9.8284C7.92167 10.5785 8.93909 11 9.99995 11C10.9635 11 11.8913 10.6523 12.6154 10.0264L11.0426 8.70668C10.7312 8.89692 10.3709 8.99997 9.99995 8.99997C9.46952 8.99997 8.96081 8.78926 8.58574 8.41419C8.21067 8.03911 7.99995 7.53041 7.99995 6.99997C7.99995 6.74754 8.04767 6.50003 8.13812 6.26951L6.56531 4.94976ZM11.9367 7.49882C11.9784 7.33721 12 7.1697 12 6.99997C12 6.46954 11.7892 5.96083 11.4142 5.58576C11.0391 5.21069 10.5304 4.99997 9.99995 4.99997C9.71169 4.99997 9.42984 5.06221 9.17237 5.17923L7.5625 3.82839C8.25764 3.29413 9.11363 2.99997 9.99995 2.99997C11.0608 2.99997 12.0782 3.4214 12.8284 4.17155C13.5785 4.92169 14 5.93911 14 6.99997C14 7.65001 13.8417 8.28373 13.5466 8.84965L11.9367 7.49882Z" fill="#0D0D0D"/>
</svg>
