<svg width="20" height="12" viewBox="0 0 20 12" fill="none" xmlns="http://www.w3.org/2000/svg">
<path d="M0.199951 5.99997C1.12114 4.19299 2.524 2.67588 4.25347 1.61631C5.98295 0.556744 7.97171 -0.00402832 9.99995 -0.00402832C12.0282 -0.00402832 14.017 0.556744 15.7464 1.61631C17.4759 2.67588 18.8788 4.19299 19.7999 5.99997C18.8788 7.80696 17.4759 9.32406 15.7464 10.3836C14.017 11.4432 12.0282 12.004 9.99995 12.004C7.97171 12.004 5.98295 11.4432 4.25347 10.3836C2.524 9.32406 1.12114 7.80696 0.199951 5.99997ZM9.99995 9.99997C11.0608 9.99997 12.0782 9.57855 12.8284 8.8284C13.5785 8.07825 14 7.06084 14 5.99997C14 4.93911 13.5785 3.92169 12.8284 3.17155C12.0782 2.4214 11.0608 1.99997 9.99995 1.99997C8.93909 1.99997 7.92167 2.4214 7.17152 3.17155C6.42138 3.92169 5.99995 4.93911 5.99995 5.99997C5.99995 7.06084 6.42138 8.07825 7.17152 8.8284C7.92167 9.57855 8.93909 9.99997 9.99995 9.99997ZM9.99995 7.99997C9.46952 7.99997 8.96081 7.78926 8.58574 7.41419C8.21067 7.03911 7.99995 6.53041 7.99995 5.99997C7.99995 5.46954 8.21067 4.96083 8.58574 4.58576C8.96081 4.21069 9.46952 3.99997 9.99995 3.99997C10.5304 3.99997 11.0391 4.21069 11.4142 4.58576C11.7892 4.96083 12 5.46954 12 5.99997C12 6.53041 11.7892 7.03911 11.4142 7.41419C11.0391 7.78926 10.5304 7.99997 9.99995 7.99997Z" fill="#0D0D0D"/>
</svg>
